<?xml version="1.0" encoding="utf-8"?>
<!-- Generator: Adobe Illustrator 24.1.2, SVG Export Plug-In . SVG Version: 6.00 Build 0)  -->
<svg version="1.1" id="Layer_1" xmlns="http://www.w3.org/2000/svg" xmlns:xlink="http://www.w3.org/1999/xlink" x="0px" y="0px"
	 viewBox="0 0 74.1 58.9" style="enable-background:new 0 0 74.1 58.9;" xml:space="preserve">
<g>
	<path d="M68.4,10.6H23.9c-2.8,0-5-2.2-5-5s2.2-5,5-5h44.5c2.8,0,5,2.2,5,5S71.1,10.6,68.4,10.6z"/>
</g>
<g>
	<path d="M68.4,34.6H5.5c-2.8,0-5-2.2-5-5s2.2-5,5-5h62.8c2.8,0,5,2.2,5,5S71.1,34.6,68.4,34.6z"/>
</g>
<g>
	<path d="M68.4,58.6H5.5c-2.8,0-5-2.2-5-5s2.2-5,5-5h62.8c2.8,0,5,2.2,5,5S71.1,58.6,68.4,58.6z"/>
</g>
</svg>
